<mxfile host="app.diagrams.net" agent="Mozilla/5.0 (Windows NT 10.0; Win64; x64) AppleWebKit/537.36 (KHTML, like Gecko) Chrome/133.0.0.0 Safari/537.36 Edg/133.0.0.0" version="24.8.4">
  <diagram name="Seite-1" id="1GFxm4tUo5XJvXFjhAzs">
    <mxGraphModel dx="1003" dy="553" grid="1" gridSize="10" guides="1" tooltips="1" connect="1" arrows="1" fold="1" page="1" pageScale="1" pageWidth="827" pageHeight="1169" math="0" shadow="0">
      <root>
        <mxCell id="0" />
        <mxCell id="1" parent="0" />
        <mxCell id="_tG7Y_QLDooaJQGQwTa4-1" value="User" style="shape=umlActor;verticalLabelPosition=bottom;verticalAlign=top;html=1;outlineConnect=0;" vertex="1" parent="1">
          <mxGeometry x="280" y="260" width="30" height="60" as="geometry" />
        </mxCell>
        <mxCell id="_tG7Y_QLDooaJQGQwTa4-3" value="SMS Sendungsplanung betreiben" style="swimlane;whiteSpace=wrap;html=1;" vertex="1" parent="1">
          <mxGeometry x="350" y="20" width="270" height="500" as="geometry" />
        </mxCell>
        <mxCell id="_tG7Y_QLDooaJQGQwTa4-4" value="SMS-Sendung Planen" style="ellipse;whiteSpace=wrap;html=1;" vertex="1" parent="_tG7Y_QLDooaJQGQwTa4-3">
          <mxGeometry x="75" y="400" width="120" height="80" as="geometry" />
        </mxCell>
        <mxCell id="_tG7Y_QLDooaJQGQwTa4-5" value="SMS-Planung bearbeiten" style="ellipse;whiteSpace=wrap;html=1;" vertex="1" parent="_tG7Y_QLDooaJQGQwTa4-3">
          <mxGeometry x="75" y="210" width="120" height="80" as="geometry" />
        </mxCell>
        <mxCell id="_tG7Y_QLDooaJQGQwTa4-6" value="SMS-Planung löschen" style="ellipse;whiteSpace=wrap;html=1;" vertex="1" parent="_tG7Y_QLDooaJQGQwTa4-3">
          <mxGeometry x="75" y="300" width="120" height="80" as="geometry" />
        </mxCell>
        <mxCell id="_tG7Y_QLDooaJQGQwTa4-7" value="SMS-Sendung deaktivieren" style="ellipse;whiteSpace=wrap;html=1;" vertex="1" parent="_tG7Y_QLDooaJQGQwTa4-3">
          <mxGeometry x="75" y="120" width="120" height="80" as="geometry" />
        </mxCell>
        <mxCell id="_tG7Y_QLDooaJQGQwTa4-19" value="SMS-Sendung aktivieren&amp;nbsp;" style="ellipse;whiteSpace=wrap;html=1;" vertex="1" parent="_tG7Y_QLDooaJQGQwTa4-3">
          <mxGeometry x="75" y="30" width="120" height="80" as="geometry" />
        </mxCell>
        <mxCell id="_tG7Y_QLDooaJQGQwTa4-8" value="Zeit" style="html=1;verticalLabelPosition=bottom;align=center;labelBackgroundColor=#ffffff;verticalAlign=top;strokeWidth=2;strokeColor=#000000;shadow=0;dashed=0;shape=mxgraph.ios7.icons.clock;" vertex="1" parent="1">
          <mxGeometry x="280" y="80" width="30" height="30" as="geometry" />
        </mxCell>
        <mxCell id="_tG7Y_QLDooaJQGQwTa4-10" value="" style="endArrow=none;html=1;rounded=0;entryX=0;entryY=0.5;entryDx=0;entryDy=0;" edge="1" parent="1" source="_tG7Y_QLDooaJQGQwTa4-1" target="_tG7Y_QLDooaJQGQwTa4-4">
          <mxGeometry width="50" height="50" relative="1" as="geometry">
            <mxPoint x="380" y="460" as="sourcePoint" />
            <mxPoint x="430" y="410" as="targetPoint" />
          </mxGeometry>
        </mxCell>
        <mxCell id="_tG7Y_QLDooaJQGQwTa4-11" value="" style="endArrow=none;html=1;rounded=0;entryX=0;entryY=0.5;entryDx=0;entryDy=0;" edge="1" parent="1" source="_tG7Y_QLDooaJQGQwTa4-1" target="_tG7Y_QLDooaJQGQwTa4-7">
          <mxGeometry width="50" height="50" relative="1" as="geometry">
            <mxPoint x="380" y="330" as="sourcePoint" />
            <mxPoint x="430" y="280" as="targetPoint" />
          </mxGeometry>
        </mxCell>
        <mxCell id="_tG7Y_QLDooaJQGQwTa4-12" value="" style="endArrow=none;html=1;rounded=0;entryX=0;entryY=0.5;entryDx=0;entryDy=0;" edge="1" parent="1" source="_tG7Y_QLDooaJQGQwTa4-1" target="_tG7Y_QLDooaJQGQwTa4-6">
          <mxGeometry width="50" height="50" relative="1" as="geometry">
            <mxPoint x="380" y="400" as="sourcePoint" />
            <mxPoint x="430" y="350" as="targetPoint" />
          </mxGeometry>
        </mxCell>
        <mxCell id="_tG7Y_QLDooaJQGQwTa4-13" value="" style="endArrow=none;html=1;rounded=0;exitX=0;exitY=0.5;exitDx=0;exitDy=0;" edge="1" parent="1" source="_tG7Y_QLDooaJQGQwTa4-5" target="_tG7Y_QLDooaJQGQwTa4-1">
          <mxGeometry width="50" height="50" relative="1" as="geometry">
            <mxPoint x="380" y="400" as="sourcePoint" />
            <mxPoint x="430" y="350" as="targetPoint" />
          </mxGeometry>
        </mxCell>
        <mxCell id="_tG7Y_QLDooaJQGQwTa4-14" value="" style="endArrow=none;html=1;rounded=0;entryX=0;entryY=0.5;entryDx=0;entryDy=0;exitX=0.964;exitY=0.499;exitDx=0;exitDy=0;exitPerimeter=0;" edge="1" parent="1" source="_tG7Y_QLDooaJQGQwTa4-8" target="_tG7Y_QLDooaJQGQwTa4-19">
          <mxGeometry width="50" height="50" relative="1" as="geometry">
            <mxPoint x="312" y="185" as="sourcePoint" />
            <mxPoint x="425" y="170" as="targetPoint" />
          </mxGeometry>
        </mxCell>
        <mxCell id="_tG7Y_QLDooaJQGQwTa4-15" value="Empfänger" style="shape=umlActor;verticalLabelPosition=bottom;verticalAlign=top;html=1;outlineConnect=0;" vertex="1" parent="1">
          <mxGeometry x="670" y="60" width="30" height="60" as="geometry" />
        </mxCell>
        <mxCell id="_tG7Y_QLDooaJQGQwTa4-18" value="" style="endArrow=none;html=1;rounded=0;entryX=1;entryY=0.5;entryDx=0;entryDy=0;" edge="1" parent="1" source="_tG7Y_QLDooaJQGQwTa4-15" target="_tG7Y_QLDooaJQGQwTa4-19">
          <mxGeometry width="50" height="50" relative="1" as="geometry">
            <mxPoint x="530" y="60" as="sourcePoint" />
            <mxPoint x="545" y="185" as="targetPoint" />
          </mxGeometry>
        </mxCell>
        <mxCell id="_tG7Y_QLDooaJQGQwTa4-20" value="" style="endArrow=none;html=1;rounded=0;entryX=0;entryY=0.5;entryDx=0;entryDy=0;" edge="1" parent="1" source="_tG7Y_QLDooaJQGQwTa4-1" target="_tG7Y_QLDooaJQGQwTa4-19">
          <mxGeometry width="50" height="50" relative="1" as="geometry">
            <mxPoint x="330" y="240" as="sourcePoint" />
            <mxPoint x="380" y="190" as="targetPoint" />
          </mxGeometry>
        </mxCell>
      </root>
    </mxGraphModel>
  </diagram>
</mxfile>
